<svg class="svg-icon" style="width: 1em; height: 1em;vertical-align: middle;fill: currentColor;overflow: hidden;" viewBox="0 0 1024 1024" version="1.1" xmlns="http://www.w3.org/2000/svg"><path d="M529.066667 648.533333c-6.826667 0-10.24-3.413333-13.653334-6.826666l-204.8-290.133334C307.2 348.16 307.2 341.333333 307.2 334.506667l27.306667-78.506667H273.066667c-61.44 0-68.266667 3.413333-68.266667 17.066667 0 6.826667 3.413333 10.24 6.826667 13.653333 3.413333 3.413333 6.826667 3.413333 6.826666 3.413333 10.24 0 17.066667 3.413333 20.48 13.653334 0 10.24-3.413333 17.066667-13.653333 20.48-13.653333 3.413333-27.306667-3.413333-37.546667-10.24C177.493333 303.786667 170.666667 286.72 170.666667 273.066667c0-51.2 47.786667-51.2 102.4-51.2h85.333333c6.826667 0 10.24 3.413333 13.653333 6.826666 3.413333 3.413333 3.413333 10.24 3.413334 17.066667l-30.72 95.573333 180.906666 259.413334L682.666667 232.106667c3.413333-10.24 13.653333-13.653333 23.893333-10.24 10.24 6.826667 13.653333 13.653333 10.24 23.893333l-170.666667 392.533333c-3.413333 6.826667-10.24 10.24-17.066666 10.24z" fill="" /><path d="M733.866667 256h-136.533334c-10.24 0-17.066667-6.826667-17.066666-17.066667s6.826667-17.066667 17.066666-17.066666h136.533334c10.24 0 17.066667 6.826667 17.066666 17.066666s-6.826667 17.066667-17.066666 17.066667zM529.066667 648.533333c-10.24 0-17.066667-6.826667-17.066667-17.066666s6.826667-17.066667 17.066667-17.066667l245.76-13.653333-133.12-208.213334-303.786667-30.72-116.053333 262.826667c-3.413333 10.24-13.653333 13.653333-23.893334 10.24-10.24-3.413333-13.653333-13.653333-10.24-23.893333l119.466667-273.066667c3.413333-6.826667 10.24-10.24 17.066667-10.24l324.266666 34.133333c6.826667 0 10.24 3.413333 13.653334 6.826667l153.6 238.933333c3.413333 3.413333 3.413333 10.24 0 17.066667s-6.826667 10.24-13.653334 10.24l-273.066666 13.653333z" fill="" /><path d="M204.8 802.133333c-112.64 0-204.8-92.16-204.8-204.8s92.16-204.8 204.8-204.8 204.8 92.16 204.8 204.8-92.16 204.8-204.8 204.8z m0-375.466666c-95.573333 0-170.666667 75.093333-170.666667 170.666666s75.093333 170.666667 170.666667 170.666667 170.666667-75.093333 170.666667-170.666667-75.093333-170.666667-170.666667-170.666666zM819.2 802.133333c-112.64 0-204.8-92.16-204.8-204.8s92.16-204.8 204.8-204.8 204.8 92.16 204.8 204.8-92.16 204.8-204.8 204.8z m0-375.466666c-95.573333 0-170.666667 75.093333-170.666667 170.666666s75.093333 170.666667 170.666667 170.666667 170.666667-75.093333 170.666667-170.666667-75.093333-170.666667-170.666667-170.666666z" fill="" /></svg>