<svg class="svg-icon" style="width: 1.06640625em; height: 1em;vertical-align: middle;fill: currentColor;overflow: hidden;" viewBox="0 0 1092 1024" version="1.1" xmlns="http://www.w3.org/2000/svg"><path d="M1091.572357 943.104863V207.198046c0-81.099935-75.706926-73.45415-75.706926-73.45415s-451.783981 0.409596-427.617839 0c-25.804525 0.409596-38.911585-13.311858-38.911585-13.311858S531.382065 90.121961 498.955744 42.472336C465.164105-7.634863 425.842924 0.488784 425.842924 0.488784H93.183006C0.955723 0.488784 0 87.186526 0 87.186526v851.685849c0 96.596303 74.751203 84.649764 74.751203 84.649763h948.009088c80.075946 0 68.812066-80.417276 68.812066-80.417275zM955.723139 837.77052c0 27.579439-21.162441 49.697603-47.308295 49.697603H183.840172C157.694318 887.468123 136.531877 865.349959 136.531877 837.77052V322.77228C136.531877 295.192841 157.694318 273.074677 183.840172 273.074677h724.574672c26.21412 0 47.308295 22.118164 47.308295 49.697603v514.99824z"  /></svg>