<svg class="svg-icon" style="width: 1em; height: 1em;vertical-align: middle;fill: currentColor;overflow: hidden;" viewBox="0 0 1024 1024" version="1.1" xmlns="http://www.w3.org/2000/svg"><path d="M465.454545 46.545455h512v139.636363h46.545455v837.818182H0V0h418.909091l46.545454 46.545455z m93.09091 93.090909l46.545454 46.545454h279.272727V139.636364H558.545455z m325.818181 139.636363H566.528l-186.181818-186.181818H93.090909v837.818182h837.818182V279.272727h-46.545455zM332.194909 890.530909l37.934546-221.160727L209.454545 512.744727l222.045091-32.256L530.804364 279.272727l99.328 201.216 222.045091 32.256-160.67491 156.625455 37.934546 221.160727-198.632727-104.401454-198.609455 104.401454z m198.609455-209.570909l74.984727 39.400727-14.312727-83.479272 60.648727-59.112728-83.828364-12.194909-37.469091-75.962182-37.492363 75.962182-83.828364 12.171637 60.648727 59.112727-14.312727 83.502545 74.961455-39.400727z" fill="#333333" /></svg>